<svg width="64" height="64" viewBox="0 0 64 64" fill="none" xmlns="http://www.w3.org/2000/svg"><rect x="1" y="1" width="62" height="62" rx="31" stroke="#B481EF" stroke-width="2"></rect><path d="M45.125 26.54V45.5C45.1211 46.195 44.8432 46.8604 44.3518 47.3518C43.8604 47.8432 43.195 48.1211 42.5 48.125H21.5C20.805 48.1211 20.1396 47.8432 19.6482 47.3518C19.1568 46.8604 18.8789 46.195 18.875 45.5V18.5C18.8789 17.805 19.1568 17.1396 19.6482 16.6482C20.1396 16.1568 20.805 15.8789 21.5 15.875H35.795C36.1809 15.8759 36.562 15.9609 36.9118 16.1241C37.2615 16.2873 37.5714 16.5248 37.82 16.82L44.51 24.86C44.9112 25.3274 45.1296 25.9241 45.125 26.54Z" fill="#B481EF"></path><path d="M45.125 26.54V27.125H38C37.305 27.1211 36.6396 26.8432 36.1482 26.3518C35.6568 25.8604 35.3789 25.195 35.375 24.5V15.875H35.795C36.1809 15.8759 36.562 15.9609 36.9118 16.1241C37.2615 16.2873 37.5714 16.5248 37.82 16.82L44.51 24.86C44.9112 25.3274 45.1296 25.9241 45.125 26.54Z" fill="#875FD5"></path><path d="M32.0039 28.625H26.0039C25.7055 28.625 25.4194 28.5065 25.2084 28.2955C24.9974 28.0845 24.8789 27.7984 24.8789 27.5C24.8789 27.2016 24.9974 26.9155 25.2084 26.7045C25.4194 26.4935 25.7055 26.375 26.0039 26.375H32.0039C32.3023 26.375 32.5884 26.4935 32.7994 26.7045C33.0104 26.9155 33.1289 27.2016 33.1289 27.5C33.1289 27.7984 33.0104 28.0845 32.7994 28.2955C32.5884 28.5065 32.3023 28.625 32.0039 28.625ZM38.0039 34.625H26.0039C25.7055 34.625 25.4194 34.5065 25.2084 34.2955C24.9974 34.0845 24.8789 33.7984 24.8789 33.5C24.8789 33.2016 24.9974 32.9155 25.2084 32.7045C25.4194 32.4935 25.7055 32.375 26.0039 32.375H38.0039C38.3023 32.375 38.5884 32.4935 38.7994 32.7045C39.0104 32.9155 39.1289 33.2016 39.1289 33.5C39.1289 33.7984 39.0104 34.0845 38.7994 34.2955C38.5884 34.5065 38.3023 34.625 38.0039 34.625ZM38.0039 40.625H26.0039C25.7055 40.625 25.4194 40.5065 25.2084 40.2955C24.9974 40.0845 24.8789 39.7984 24.8789 39.5C24.8789 39.2016 24.9974 38.9155 25.2084 38.7045C25.4194 38.4935 25.7055 38.375 26.0039 38.375H38.0039C38.3023 38.375 38.5884 38.4935 38.7994 38.7045C39.0104 38.9155 39.1289 39.2016 39.1289 39.5C39.1289 39.7984 39.0104 40.0845 38.7994 40.2955C38.5884 40.5065 38.3023 40.625 38.0039 40.625Z" fill="white"></path></svg>