<svg width="64" height="64" viewBox="0 0 64 64" fill="none" xmlns="http://www.w3.org/2000/svg"><rect x="1" y="1" width="62" height="62" rx="31" stroke="#50CFFF" stroke-width="2"></rect><path d="M29.6514 13C32.7703 13 35.654 14.1007 38.002 15.959C38.3349 15.9288 38.6714 15.9082 39.0117 15.9082C44.8652 15.9082 49.6943 20.6932 50.4248 26.8867H50.4258C53.6074 27.6083 56 30.6961 56 34.3945C55.9998 36.6691 53.6892 38 51.3535 38H46.3867C46.3894 37.6425 46.39 37.2139 46.3887 36.7109C46.3882 36.5424 46.3881 36.3629 46.3877 36.1738C46.3865 35.6072 46.3857 34.9447 46.3887 34.1699C46.394 32.7926 45.9536 31.53 45.0303 30.5117L44.8398 30.3115C43.8163 29.2901 42.5257 28.7514 41.0781 28.748C39.0833 28.7444 37.1374 28.7451 35.2412 28.7471C35.1471 28.6228 35.0587 28.5072 34.9775 28.3994L34.4502 27.6904C34.0951 27.204 33.7114 26.7199 33.3252 26.3633L33.1602 26.2188C32.1607 25.3973 30.9707 24.9975 29.6865 25C27.8023 25.0038 26.0323 25.0038 24.377 25C21.9045 24.9941 19.7669 26.6078 19.1523 29.0371C19.0125 29.5895 18.9946 30.3664 19.001 31.1094C19.0059 31.685 19.0066 33.979 19.0049 38H18.0371C13.901 38 9 36.4225 9 32.3945C9.00004 29.1864 11.9935 24.666 16.0342 23.791C18.0675 17.8797 23.544 13 29.6514 13Z" fill="#50CFFF"></path><path d="M44.3889 34.1621C44.3927 33.1824 44.0721 32.3709 43.427 31.7276C42.7749 31.0767 41.9906 30.7502 41.0743 30.7481C38.7513 30.7439 36.4954 30.7435 34.3066 30.7468C34.2886 30.7468 34.2709 30.7426 34.2547 30.7347C34.2386 30.7267 34.2245 30.7152 34.2135 30.7009C33.5622 29.847 33.1026 29.2366 32.8346 28.8696C32.4332 28.3198 32.1185 27.9512 31.8903 27.7637C31.2688 27.2529 30.5355 26.9983 29.6904 27C27.8036 27.0038 26.0308 27.0038 24.3722 27C22.7988 26.9962 21.4759 28.0053 21.0909 29.5283C21.0242 29.7917 20.9942 30.313 21.0009 31.0922C21.008 31.9209 21.0085 36.2081 21.0022 43.9538C21.0013 44.8089 21.0276 45.3564 21.0808 45.5963C21.3689 46.9041 22.4069 47.8874 23.7141 48.1371C23.9113 48.1749 24.4676 48.1935 25.3831 48.1931C33.5792 48.1873 38.6265 48.1873 40.5251 48.1931C41.0334 48.1948 41.3798 48.1803 41.5643 48.1497C43.0081 47.9126 44.0926 46.8658 44.3449 45.4296C44.3755 45.2551 44.3895 44.7762 44.387 43.9927C44.3832 42.67 44.3799 41.687 44.377 41.0436L44.382 38.4958C44.3926 38.0966 44.3911 37.5245 44.3889 36.7159C44.3887 36.6317 44.3885 36.5444 44.3883 36.4549C44.388 36.3654 44.3878 36.2733 44.3876 36.1785C44.3864 35.6094 44.3859 34.9425 44.3889 34.1621Z" fill="#308DBC"></path><path fill-rule="evenodd" clip-rule="evenodd" d="M44.3889 36.7159L44.3883 36.4549C44.388 36.3654 44.3878 36.2733 44.3876 36.1785C44.388 36.3682 44.3885 36.5474 44.3889 36.7159Z" fill="#308DBC"></path></svg>