<svg width="64" height="64" viewBox="0 0 64 64" fill="none" xmlns="http://www.w3.org/2000/svg"><rect x="1" y="1" width="62" height="62" rx="31" stroke="#3BA8F6" stroke-width="2"></rect><path d="M35.3125 15C35.7074 15.0009 36.0973 15.0879 36.4551 15.2549C36.8129 15.4219 37.1304 15.6647 37.3848 15.9668L44.2295 24.1934C44.6399 24.6715 44.864 25.282 44.8594 25.9121V30.6963C43.4707 30.0393 41.9776 29.6922 40.3809 29.6562H39.9668C34.0121 29.7918 29.2575 34.5497 29.125 40.501V40.918C29.2088 43.6383 30.1275 45.9971 31.877 47.998H20.6855C19.9746 47.9939 19.2938 47.7098 18.791 47.207C18.2883 46.7043 18.0041 46.0235 18 45.3125V17.6855C18.0041 16.9746 18.2883 16.2938 18.791 15.791C19.2938 15.2883 19.9746 15.0041 20.6855 15H35.3125Z" fill="#3BA8F6"></path><path d="M44.859 25.9124V26.511H37.5687C36.8576 26.5069 36.1768 26.2227 35.6739 25.7198C35.1711 25.217 34.8868 24.5362 34.8828 23.8251V15H35.3126C35.7074 15.0009 36.0974 15.0879 36.4552 15.2549C36.8131 15.4218 37.1302 15.6648 37.3845 15.9669L44.2297 24.1934C44.6402 24.6716 44.8637 25.2822 44.859 25.9124Z" fill="#3B8CF6"></path><path d="M40.3488 31.498C41.7138 31.5287 42.9875 31.8317 44.17 32.4071C45.2672 32.9409 46.2077 33.6427 46.9917 34.5125C48.5166 36.2051 49.3148 38.2115 49.3863 40.5316V40.8777C49.3295 43.4187 48.2377 45.8393 46.3719 47.521C44.679 49.0462 42.6725 49.8444 40.3524 49.9156H40.007C38.6411 49.8849 37.3672 49.5819 36.1854 49.0066C35.0897 48.4735 34.1505 47.7731 33.3677 46.9055C31.8399 45.2124 31.0402 43.2048 30.9688 40.8827V40.5349C31.0792 35.5754 35.0411 31.611 40.0034 31.498H40.3488Z" fill="#2BCFA9"></path><path d="M43.8044 37.9417C43.8062 37.9418 43.808 37.9413 43.8095 37.9404C43.8111 37.9395 43.8123 37.9382 43.8132 37.9367C43.8141 37.9351 43.8145 37.9333 43.8145 37.9316C43.8144 37.9298 43.8139 37.928 43.8129 37.9265C43.6183 37.6125 43.3818 37.33 43.1033 37.079C42.4221 36.4653 41.6263 36.092 40.7159 35.9594C39.1442 35.7304 37.5711 36.3305 36.5968 37.5933C36.441 37.7947 36.3383 37.9149 36.2886 37.9537C35.944 38.2231 35.4464 38.1669 35.1318 37.8537C34.8919 37.6148 34.8653 37.2794 35.0534 37.0016C35.624 36.1574 36.3589 35.4889 37.258 34.996C38.2947 34.4279 39.3941 34.1895 40.5561 34.2806C42.6664 34.4464 44.4547 35.6993 45.4309 37.5597C45.4766 37.6466 45.5352 37.7662 45.6065 37.9184C45.609 37.9236 45.6128 37.928 45.6176 37.931C45.6224 37.9341 45.628 37.9357 45.6338 37.9357C45.8463 37.9371 46.1953 37.9358 46.6809 37.9318C46.8035 37.9307 46.8949 37.97 46.9552 38.0499C47.0289 38.1474 47.0321 38.2491 46.9647 38.3549C45.8048 40.1755 45.1499 41.2024 45.0001 41.4357C44.9223 41.5572 44.7682 41.5883 44.6463 41.535C44.6039 41.5166 44.5504 41.4572 44.4858 41.3568C43.4692 39.778 42.8296 38.7863 42.5671 38.3817C42.4675 38.2281 42.4917 38.0966 42.6399 37.9873C42.6769 37.9602 42.7247 37.9462 42.7834 37.9453C43.1182 37.9401 43.4586 37.9389 43.8044 37.9417Z" fill="white"></path><path d="M36.6025 43.4935C36.6942 43.646 36.8023 43.7914 36.927 43.93C37.6758 44.7619 38.5962 45.2527 39.6883 45.4023C40.553 45.5206 41.3834 45.3989 42.1795 45.0373C42.8846 44.7167 43.4571 44.2201 43.9081 43.5921C44.1091 43.3124 44.3789 43.1953 44.7174 43.2408C44.9504 43.2719 45.1953 43.4105 45.3278 43.6116C45.4923 43.8613 45.4821 44.12 45.2974 44.3877C44.3015 45.8318 42.7379 46.8358 40.9835 47.0528C39.062 47.2903 37.1588 46.5563 35.8596 45.1182C35.4709 44.688 35.1599 44.2368 34.9266 43.7646C34.8788 43.6678 34.8332 43.5785 34.7898 43.4967C34.7873 43.4919 34.7834 43.4879 34.7788 43.4851C34.7741 43.4823 34.7688 43.4808 34.7633 43.4808C34.6615 43.4806 34.2903 43.4816 33.6497 43.484C33.4359 43.4847 33.2708 43.2712 33.3935 43.0772C33.8531 42.3477 34.5032 41.3279 35.3436 40.0176C35.3759 39.9672 35.4004 39.9348 35.4172 39.9204C35.5052 39.8444 35.6395 39.8395 35.7381 39.8932C35.772 39.9118 35.8182 39.9665 35.8766 40.0572C36.7585 41.4259 37.4023 42.425 37.8081 43.0546C37.8646 43.1422 37.8784 43.2337 37.8243 43.3263C37.7656 43.4262 37.6672 43.4756 37.5288 43.4744C37.4191 43.4737 37.1135 43.4744 36.6121 43.4766C36.6101 43.4766 36.6082 43.4771 36.6065 43.4782C36.6048 43.4792 36.6034 43.4806 36.6025 43.4823C36.6015 43.484 36.601 43.486 36.601 43.4879C36.601 43.4899 36.6015 43.4918 36.6025 43.4935Z" fill="white"></path></svg>