<svg width="64" height="64" viewBox="0 0 64 64" fill="none" xmlns="http://www.w3.org/2000/svg"><rect x="1" y="1" width="62" height="62" rx="31" stroke="#2E98F5" stroke-width="2"></rect><g clip-path="url(#clip0_11323_2705)"><mask id="mask0_11323_2705" maskUnits="userSpaceOnUse" x="16" y="16" width="32" height="32" style="mask-type: luminance;"><path d="M16.2656 16.0001H47.7382V47.4727H16.2656V16.0001Z" fill="white"></path></mask><g mask="url(#mask0_11323_2705)"><path d="M43.128 21.5325H35.7516C35.2419 21.5325 34.8295 21.1201 34.8295 20.6105C34.8295 20.1008 35.2419 19.6884 35.7516 19.6884H43.128C43.6376 19.6884 44.05 20.1008 44.05 20.6105C44.05 21.1201 43.6376 21.5325 43.128 21.5325ZM28.2522 21.5325C27.743 21.5325 27.3302 21.1197 27.3302 20.6105C27.3302 20.1011 27.743 19.6884 28.2522 19.6884C28.7615 19.6884 29.1743 20.1011 29.1743 20.6105C29.1743 21.1197 28.7615 21.5325 28.2522 21.5325ZM24.5641 21.5325C24.0548 21.5325 23.642 21.1197 23.642 20.6105C23.642 20.1011 24.0548 19.6884 24.5641 19.6884C25.0733 19.6884 25.4861 20.1011 25.4861 20.6105C25.4861 21.1197 25.0733 21.5325 24.5641 21.5325ZM20.8759 21.5325C20.3666 21.5325 19.9538 21.1197 19.9538 20.6105C19.9538 20.1011 20.3666 19.6884 20.8759 19.6884C21.3851 19.6884 21.7979 20.1011 21.7979 20.6105C21.7979 21.1197 21.3851 21.5325 20.8759 21.5325ZM44.972 16.0002H19.0318C17.5065 16.0002 16.2656 17.2411 16.2656 18.7664V22.4546C16.2656 23.9799 17.5065 25.2207 19.0318 25.2207H44.972C46.4974 25.2207 47.7382 23.9799 47.7382 22.4546V18.7664C47.7382 17.2411 46.4974 16.0002 44.972 16.0002Z" fill="#2E98F5"></path><path d="M43.128 32.6575H35.7516C35.2419 32.6575 34.8295 32.2451 34.8295 31.7355C34.8295 31.2258 35.2419 30.8134 35.7516 30.8134H43.128C43.6376 30.8134 44.05 31.2258 44.05 31.7355C44.05 32.2451 43.6376 32.6575 43.128 32.6575ZM28.2522 32.6575C27.743 32.6575 27.3302 32.2447 27.3302 31.7355C27.3302 31.2261 27.743 30.8134 28.2522 30.8134C28.7615 30.8134 29.1743 31.2261 29.1743 31.7355C29.1743 32.2447 28.7615 32.6575 28.2522 32.6575ZM24.5641 32.6575C24.0548 32.6575 23.642 32.2447 23.642 31.7355C23.642 31.2261 24.0548 30.8134 24.5641 30.8134C25.0733 30.8134 25.4861 31.2261 25.4861 31.7355C25.4861 32.2447 25.0733 32.6575 24.5641 32.6575ZM20.8759 32.6575C20.3666 32.6575 19.9538 32.2447 19.9538 31.7355C19.9538 31.2261 20.3666 30.8134 20.8759 30.8134C21.3851 30.8134 21.7979 31.2261 21.7979 31.7355C21.7979 32.2447 21.3851 32.6575 20.8759 32.6575ZM44.972 27.1252H19.0318C17.5065 27.1252 16.2656 28.3661 16.2656 29.8914V33.5796C16.2656 35.1049 17.5065 36.3457 19.0318 36.3457H44.972C46.4974 36.3457 47.7382 35.1049 47.7382 33.5796V29.8914C47.7382 28.3661 46.4974 27.1252 44.972 27.1252Z" fill="#2E98F5"></path><path d="M43.128 43.7845H35.7516C35.2419 43.7845 34.8295 43.3721 34.8295 42.8624C34.8295 42.3528 35.2419 41.9404 35.7516 41.9404H43.128C43.6376 41.9404 44.05 42.3528 44.05 42.8624C44.05 43.3721 43.6376 43.7845 43.128 43.7845ZM28.2522 43.7845C27.743 43.7845 27.3302 43.3716 27.3302 42.8624C27.3302 42.3531 27.743 41.9404 28.2522 41.9404C28.7615 41.9404 29.1743 42.3531 29.1743 42.8624C29.1743 43.3716 28.7615 43.7845 28.2522 43.7845ZM24.5641 43.7845C24.0548 43.7845 23.642 43.3716 23.642 42.8624C23.642 42.3531 24.0548 41.9404 24.5641 41.9404C25.0733 41.9404 25.4861 42.3531 25.4861 42.8624C25.4861 43.3716 25.0733 43.7845 24.5641 43.7845ZM20.8759 43.7845C20.3666 43.7845 19.9538 43.3716 19.9538 42.8624C19.9538 42.3531 20.3666 41.9404 20.8759 41.9404C21.3851 41.9404 21.7979 42.3531 21.7979 42.8624C21.7979 43.3716 21.3851 43.7845 20.8759 43.7845ZM44.972 38.2522H19.0318C17.5065 38.2522 16.2656 39.493 16.2656 41.0183V44.7065C16.2656 46.2318 17.5065 47.4727 19.0318 47.4727H44.972C46.4974 47.4727 47.7382 46.2318 47.7382 44.7065V41.0183C47.7382 39.493 46.4974 38.2522 44.972 38.2522Z" fill="#2E98F5"></path></g></g><path d="M39.2812 34.5332C41.1924 34.5332 42.9617 35.1638 44.4277 36.2266C44.5195 36.2226 44.6129 36.2197 44.708 36.2197C48.466 36.2197 51.4925 39.1068 52.2139 42.8125C54.2034 43.5809 55.5575 45.626 55.5576 47.9365C55.5576 48.9786 55.0136 49.7834 54.2969 50.292C53.5988 50.7873 52.7151 51.0273 51.8633 51.0273H32.5479C31.246 51.0273 29.7658 50.7825 28.5713 50.167C27.3553 49.5403 26.3086 48.4433 26.3086 46.7773C26.3086 45.5715 26.8539 44.2434 27.6748 43.1689C28.3972 42.2235 29.4093 41.3744 30.6289 40.9629C32.0386 37.4593 35.3926 34.5333 39.2812 34.5332Z" fill="#50CFFF" stroke="white" stroke-width="2"></path><defs><clipPath id="clip0_11323_2705"><rect width="31.4727" height="31.4727" fill="white" transform="translate(16.2656 16)"></rect></clipPath></defs></svg>